/vscmnt/brussel_pixiu_data/_data_brussel/112/vsc11236/PredSimResults/SUBJ10opt3D/trackIG/worker_03.mot
version=1
nRows=4
nColumns=50
inDegrees=yes
endheader
                time	         pelvis_tilt	         pelvis_list	     pelvis_rotation	           pelvis_tx	           pelvis_ty	           pelvis_tz	       hip_flexion_r	     hip_adduction_r	      hip_rotation_r	        knee_angle_r	       ankle_angle_r	         mtp_angle_r	       hip_flexion_l	     hip_adduction_l	      hip_rotation_l	        knee_angle_l	       ankle_angle_l	         mtp_angle_l	    lumbar_extension	      lumbar_bending	     lumbar_rotation	 ercspn_r/activation	 intobl_r/activation	 extobl_r/activation	    abd_r/activation	    add_r/activation	hamstrings_r/activation	bifemsh_r/activation	glut_max_r/activation	iliopsoas_r/activation	rect_fem_r/activation	  vasti_r/activation	gastroc_r/activation	 soleus_r/activation	tib_ant_r/activation	 ercspn_l/activation	 intobl_l/activation	 extobl_l/activation	    abd_l/activation	    add_l/activation	hamstrings_l/activation	bifemsh_l/activation	glut_max_l/activation	iliopsoas_l/activation	rect_fem_l/activation	  vasti_l/activation	gastroc_l/activation	 soleus_l/activation	tib_ant_l/activation	
          1.34850696	         -0.97542985	         -2.42934645	          8.65347864	          1.07880556	          0.84061003	         -0.01711813	         24.65612250	          0.02991118	         -5.07367921	         -9.46470655	          1.55685764	          0.24446691	        -13.89955169	         -2.81347305	         -0.97075400	         -6.82086150	         11.14832139	         19.91361959	         -5.25554245	         -0.86722537	         -4.61987653	          0.11356446	          0.17214918	          0.00999999	          0.00999999	          0.14471605	          0.07230714	          0.10647803	          0.01308669	          0.07665911	          0.01000003	          0.00999999	          0.00999999	          0.00999999	          0.22795780	          0.05305471	          0.00999999	          0.00999999	          0.08134442	          0.00999999	          0.00999999	          0.18033408	          0.00999999	          0.23960071	          0.00999999	          0.00999999	          0.24249900	          0.23339182	          0.02181247	
          1.36199202	         -1.03950230	         -2.31555952	          8.49065594	          1.09182447	          0.83919403	         -0.01612507	         24.27860593	          0.19961507	         -4.85198470	        -10.22718081	          1.47411896	          0.23915632	        -14.11408404	         -2.80302898	         -1.63861401	         -8.04832171	         10.87551284	         21.28899241	         -4.98983938	         -0.50631534	         -5.00806140	          0.10356533	          0.17695610	          0.00999999	          0.00999999	          0.16494918	          0.06605116	          0.10366021	          0.01648452	          0.06259158	          0.00999999	          0.00999999	          0.01224750	          0.01100503	          0.24506454	          0.06583212	          0.00999999	          0.00999999	          0.06641710	          0.00999999	          0.01000000	          0.14724140	          0.00999999	          0.19563216	          0.00999999	          0.00999999	          0.22616317	          0.23232443	          0.01780972	
          1.37547709	         -1.09767415	         -2.21645254	          8.27682390	          1.10514792	          0.83797261	         -0.01503910	         23.80724404	          0.37557019	         -4.59331964	        -10.88312791	          1.21953815	          0.23768625	        -14.27810218	         -2.81469524	         -2.32311667	         -9.40706904	         10.46492570	         22.68634109	         -4.69968490	         -0.10155139	         -5.38521165	          0.09131725	          0.16465720	          0.00999999	          0.00999999	          0.14033799	          0.06311948	          0.08463777	          0.02704126	          0.05110555	          0.00999999	          0.01517688	          0.00999999	          0.00999999	          0.28254380	          0.07570067	          0.00999999	          0.00999999	          0.05422906	          0.00999999	          0.00999999	          0.12022148	          0.00999999	          0.15973217	          0.00999999	          0.00999999	          0.20598557	          0.22672610	          0.01454150	
          1.38896216	         -1.15000356	         -2.12922269	          8.00522875	          1.11862470	          0.83706221	         -0.01383112	         23.32352389	          0.55518302	         -4.41512722	        -11.49157605	          0.86200685	          0.23041321	        -14.33042465	         -2.84717843	         -3.02839059	        -10.98371520	          9.89758588	         24.08987760	         -4.40511514	          0.33800774	         -5.74486384	          0.08649505	          0.13444135	          0.00999999	          0.02064059	          0.13556480	          0.06779225	          0.06910610	          0.02207899	          0.04172729	          0.00999999	          0.04164946	          0.00999999	          0.00999999	          0.32308396	          0.08222970	          0.00999999	          0.00999999	          0.04427761	          0.00999999	          0.01000011	          0.09815993	          0.00999999	          0.13042010	          0.00999999	          0.00999999	          0.18007513	          0.21709389	          0.01187302	
